<svg xmlns="http://www.w3.org/2000/svg" width="14.006" height="16.607" viewBox="0 0 14.006 16.607">
  <path id="Apple_logo_black" d="M11.828,16.938a2.365,2.365,0,0,1-2.842.326,3.6,3.6,0,0,0-2.992,0,2.229,2.229,0,0,1-2.825-.326C-1.334,12.3-.67,5.238,4.449,4.972c1.241.066,2.111.686,2.842.738,1.087-.221,2.127-.854,3.291-.771A4.008,4.008,0,0,1,13.723,6.6a3.653,3.653,0,0,0,.447,6.581,9.342,9.342,0,0,1-2.343,3.773ZM7.191,4.922A3.784,3.784,0,0,1,10.648,1C10.912,3.377,8.488,5.155,7.191,4.922Z" transform="translate(-0.164 -1)"/>
</svg>
