<svg xmlns="http://www.w3.org/2000/svg" width="42" height="56" viewBox="0 0 42 56">
  <path id="ic_lightbulb_outline_24px" d="M17,55.2A2.914,2.914,0,0,0,20,58H32a2.914,2.914,0,0,0,3-2.8V52.4H17ZM26,2C14.42,2,5,10.792,5,21.6a19.251,19.251,0,0,0,9,16.072V44a2.914,2.914,0,0,0,3,2.8H35A2.914,2.914,0,0,0,38,44V37.672A19.251,19.251,0,0,0,47,21.6C47,10.792,37.58,2,26,2Zm8.55,31.08L32,34.76V41.2H20V34.76l-2.55-1.68A13.745,13.745,0,0,1,11,21.6c0-7.728,6.72-14,15-14s15,6.272,15,14A13.745,13.745,0,0,1,34.55,33.08Z" transform="translate(-5 -2)" fill="#000c61"/>
</svg>
