<svg xmlns="http://www.w3.org/2000/svg" width="7.975" height="15.226" viewBox="0 0 7.975 15.226">
  <path id="Path_173" data-name="Path 173" d="M219.5,66.9h1.45a.363.363,0,0,0,.363-.363V64.362a.363.363,0,0,0-.363-.362H219.5a3.988,3.988,0,0,0-3.988,3.988V69.8H213.7a.363.363,0,0,0-.363.363v2.175a.363.363,0,0,0,.363.363h1.813v6.525h2.9V72.7h1.813a.363.363,0,0,0,.344-.248l.725-2.175a.363.363,0,0,0-.344-.477h-2.538V67.988A1.088,1.088,0,0,1,219.5,66.9Z" transform="translate(-213.333 -64)" fill="#3975ea"/>
</svg>
