<svg xmlns="http://www.w3.org/2000/svg" width="16" height="16" viewBox="0 0 16 16">
  <g id="Google" transform="translate(0.426 0.426)">
    <rect id="Rectangle_2189" data-name="Rectangle 2189" width="16" height="16" transform="translate(-0.426 -0.426)" fill="none"/>
    <path id="Path_2171" data-name="Path 2171" d="M4.469,39A4.478,4.478,0,0,1,4.7,37.6L2.144,35.648a7.626,7.626,0,0,0,0,6.708L4.694,40.4A4.481,4.481,0,0,1,4.469,39" transform="translate(-0.617 -31.429)" fill="#fbbc05" fill-rule="evenodd"/>
    <path id="Path_2172" data-name="Path 2172" d="M14.745,3.1a4.389,4.389,0,0,1,2.793,1l2.206-2.2A7.58,7.58,0,0,0,7.938,4.219l2.553,1.949A4.47,4.47,0,0,1,14.745,3.1" transform="translate(-6.411)" fill="#ea4335" fill-rule="evenodd"/>
    <path id="Path_2173" data-name="Path 2173" d="M14.745,78.951a4.47,4.47,0,0,1-4.254-3.07L7.938,77.83a7.562,7.562,0,0,0,6.807,4.219,7.228,7.228,0,0,0,4.942-1.888l-2.423-1.873a4.692,4.692,0,0,1-2.519.662" transform="translate(-6.411 -66.901)" fill="#34a853" fill-rule="evenodd"/>
    <path id="Path_2174" data-name="Path 2174" d="M72.7,53.741a6.274,6.274,0,0,0-.172-1.377H65.457V55.29h4.068a3.411,3.411,0,0,1-1.549,2.264L70.4,59.428a7.533,7.533,0,0,0,2.3-5.686" transform="translate(-57.123 -46.167)" fill="#4285f4" fill-rule="evenodd"/>
  </g>
</svg>
