<svg xmlns="http://www.w3.org/2000/svg" width="56" height="39.529" viewBox="0 0 56 39.529">
  <path id="ic_local_atm_24px" d="M27.2,36.118h5.6V33.647h2.8a2.659,2.659,0,0,0,2.8-2.471V23.765a2.659,2.659,0,0,0-2.8-2.471H27.2V18.824H38.4V13.882H32.8V11.412H27.2v2.471H24.4a2.659,2.659,0,0,0-2.8,2.471v7.412a2.659,2.659,0,0,0,2.8,2.471h8.4v2.471H21.6v4.941h5.6ZM52.4,4H7.6C4.492,4,2.028,6.2,2.028,8.941L2,38.588c0,2.742,2.492,4.941,5.6,4.941H52.4c3.108,0,5.6-2.2,5.6-4.941V8.941C58,6.2,55.508,4,52.4,4Zm0,34.588H7.6V8.941H52.4Z" transform="translate(-2 -4)" fill="#000c61"/>
</svg>
