<svg width="33" height="33" viewBox="0 0 33 33" fill="none" xmlns="http://www.w3.org/2000/svg">
<path fill-rule="evenodd" clip-rule="evenodd" d="M13.012 29.249H18.985C18.8093 29.654 18.5476 30.016 18.2179 30.3096C17.8882 30.6032 17.4985 30.8214 17.076 30.9491C16.5813 31.1095 16.0569 31.1568 15.5415 31.0875C15.0261 31.0183 14.5328 30.8343 14.098 30.5491C13.8494 30.4061 13.6321 30.2146 13.459 29.9861C13.2609 29.7757 13.1087 29.5263 13.012 29.254V29.249ZM0.00195312 13.8721V14.5591C0.00195312 15.5401 2.12796 15.8181 2.13696 14.3721C2.1528 13.7938 2.20962 13.2174 2.30698 12.6471C2.63708 10.6977 3.47484 8.8697 4.73596 7.34705C5.74696 6.07005 7.18297 5.42204 6.24197 4.51404C5.50597 3.80204 4.74797 4.38106 4.21497 4.88806C2.5208 6.49357 1.25771 8.49946 0.541962 10.7211C0.219526 11.7419 0.0381787 12.8021 0.00296021 13.8721H0.00195312ZM25.46 5.12207C25.46 5.69207 25.96 5.91204 26.253 6.23804C27.2818 7.22443 28.1282 8.38494 28.753 9.66602C29.3139 10.8532 29.668 12.1276 29.8 13.4341C29.82 14.1771 29.779 15.3721 30.794 15.3721C32.053 15.3721 32.003 14.6721 32.003 13.9971C31.8999 11.0221 30.761 8.17651 28.783 5.95203C28.063 5.10603 26.901 3.59703 25.834 4.45203C25.6293 4.62053 25.496 4.86028 25.461 5.12305L25.46 5.12207ZM15.745 0.99707C15.2817 1.02185 14.8287 1.14347 14.4153 1.35413C14.0019 1.56478 13.6373 1.85981 13.345 2.22009C12.659 3.10409 12.807 3.79406 12.807 5.18506C11.9198 5.3784 11.0667 5.70365 10.276 6.15002C8.89785 6.83921 7.70404 7.84725 6.79373 9.09045C5.88342 10.3337 5.28287 11.7762 5.04196 13.2981C4.82796 14.7981 5.17196 17.498 4.79196 19.515C3.62796 25.692 0.00695801 27.3741 0.00695801 28.1841C0.00695801 29.3841 0.920955 29.2471 1.99796 29.2471H10.745C10.837 29.4161 10.945 29.8141 11.019 30.0061C11.3395 30.7162 11.827 31.3382 12.44 31.8191C13.3603 32.4925 14.4478 32.9002 15.584 32.998H16.399C17.5269 32.9004 18.6082 32.5031 19.531 31.847C20.3765 31.1916 20.9862 30.2791 21.268 29.2471C21.939 29.2471 30.9599 29.3381 31.368 29.1901C31.5766 29.1259 31.7553 28.9892 31.8718 28.8047C31.9883 28.6201 32.0348 28.4 32.003 28.1841C32.003 27.7921 31.303 27.2771 30.997 26.9441C29.01 24.9332 27.6932 22.3573 27.227 19.5691C26.836 17.5331 27.175 14.511 26.977 13.353C26.7781 11.9658 26.2739 10.6401 25.5005 9.47144C24.7272 8.30277 23.7041 7.32038 22.505 6.59509C21.4935 5.94026 20.3773 5.46334 19.205 5.18506C19.205 3.73906 19.419 2.84105 18.262 1.82605C17.7001 1.33523 16.9916 1.0441 16.247 0.998047L15.745 0.99707ZM16.003 6.62305C17.2773 6.61396 18.5403 6.86264 19.7161 7.35413C20.8919 7.84561 21.9562 8.56974 22.845 9.48303C25.77 12.408 24.565 15.948 24.901 18.613C25.0862 20.5602 25.6286 22.4565 26.501 24.207L28.589 27.373H3.41296C4.02703 26.5921 4.59469 25.7757 5.11298 24.9281C5.91591 23.5483 6.49 22.0474 6.81296 20.484C6.98896 19.73 6.96795 19.357 7.07495 18.713C7.52095 16.035 6.12895 12.7451 9.09695 9.5531L9.62097 9.01501C10.4134 8.32187 11.3131 7.76197 12.285 7.35706C12.8357 7.13852 13.4045 6.96891 13.985 6.8501C14.6511 6.71636 15.3277 6.64141 16.007 6.6261L16.003 6.62305ZM14.936 3.99707C14.9297 3.8532 14.9527 3.70947 15.0034 3.57471C15.0542 3.43994 15.1317 3.3169 15.2313 3.21289C15.3309 3.10888 15.4506 3.02615 15.583 2.9696C15.7155 2.91306 15.8579 2.88391 16.002 2.88391C16.146 2.88391 16.2885 2.91306 16.4209 2.9696C16.5534 3.02615 16.673 3.10888 16.7726 3.21289C16.8722 3.3169 16.9497 3.43994 17.0005 3.57471C17.0512 3.70947 17.0742 3.8532 17.068 3.99707V4.74805H14.936V3.99707Z" fill="white"/>
</svg>
