<svg xmlns="http://www.w3.org/2000/svg" width="56" height="42" viewBox="0 0 56 42">
  <path id="ic_supervisor_account_24px" d="M42.6,26a7.243,7.243,0,0,0,6.972-7.5A7.243,7.243,0,0,0,42.6,11a7.266,7.266,0,0,0-7,7.5A7.266,7.266,0,0,0,42.6,26Zm-21-3c4.648,0,8.372-4.02,8.372-9S26.248,5,21.6,5s-8.4,4.02-8.4,9S16.952,23,21.6,23Zm21,9c-5.124,0-15.4,2.76-15.4,8.25V47H58V40.25C58,34.76,47.724,32,42.6,32Zm-21-3C15.076,29,2,32.51,2,39.5V47H21.6V40.25c0-2.55.924-7.02,6.636-10.41A32.205,32.205,0,0,0,21.6,29Z" transform="translate(-2 -5)" fill="#000c61"/>
</svg>
